<?xml version="1.0" encoding="UTF-8"?>
<!DOCTYPE svg PUBLIC "-//W3C//DTD SVG 1.1//EN" "http://www.w3.org/Graphics/SVG/1.1/DTD/svg11.dtd">
<!-- Creator: CorelDRAW 2017 -->
<svg xmlns="http://www.w3.org/2000/svg" xml:space="preserve" width="297mm" height="210mm" version="1.1" style="shape-rendering:geometricPrecision; text-rendering:geometricPrecision; image-rendering:optimizeQuality; fill-rule:evenodd; clip-rule:evenodd"
viewBox="0 0 29700 21000"
 xmlns:xlink="http://www.w3.org/1999/xlink">
 <defs>
  <style type="text/css">
   <![CDATA[
    .fil0 {fill:#D50000}
    .fil1 {fill:white}
   ]]>
  </style>
 </defs>
 <g id="Camada_x0020_1">
  <metadata id="CorelCorpID_0Corel-Layer"/>
  <g id="_2375664554192">
   <path class="fil0" d="M17112.34 16111.17c-192.51,-14.59 -1437.73,-36.47 -1525.18,32.26 -89.63,70.46 -273.73,314.37 -370.5,417.32 -74.44,79.18 -101.57,127.14 -185.58,208.59 -576.13,558.62 -514.75,576.7 -1474.59,-518.96 -286.02,-326.5 -859.07,-889.24 -1174.33,-1213.51 -263.25,-270.79 -516.95,-525.35 -787.37,-789.13l-3606.53 -3512.28c-353.49,-344.71 -734.46,-991.67 -911.83,-1475.62 -474.1,-1293.78 -231.45,-2627.23 546.34,-3710.55 250.28,-348.63 468.6,-554.9 772.76,-826.1 1270.3,-1132.67 3231.03,-1231.9 4629.38,-120.2 425.56,338.35 606.12,625.1 810.26,766.6 340.95,236.29 878.53,280.66 1275.55,67.27 386.6,-207.78 698.71,-915.04 1813.62,-1362.13 2002.49,-803.03 3612.52,321.75 4430.2,1376.03 785.15,1012.34 1102.24,2390.52 654.96,3708.62 -201.6,594.03 -479.07,926.58 -528.33,1070.74l1615.12 -2.43 -48.45 1279.76c139.17,-91.68 469.36,-701.09 542.3,-832.99 540.93,-978.12 784.66,-2286.65 642.44,-3441.15 -456.8,-3708.65 -4309.4,-6521.01 -7977.82,-5098.5 -656.55,254.6 -1302.14,652.66 -1714.24,1039.22 -111.7,-42.58 -705.1,-632.49 -1710.16,-1024.96 -710.78,-277.54 -1539.8,-438.85 -2385.53,-373.57 -2933.12,226.34 -5247.46,2607.36 -5620.39,5398.36 -235.34,1761.12 366.85,3225.9 1141.32,4313.78 206.75,290.42 398.67,497.08 619.32,738.97l693.02 686.29c473.48,448.18 928.75,905.63 1404.75,1355.38 236.54,223.5 460.2,455.83 698.06,681.85 240.94,228.98 463.67,446.37 699.89,679.98l2355.54 2441.24c514.96,592.22 1258.74,1246.94 2280.96,1143.27 543.75,-55.12 1043.68,-305.05 1409.75,-647.62 299.18,-279.97 567.91,-595.88 843.49,-887.39 83.04,-87.85 91.34,-85.05 96.5,-251.91 11.28,-366.78 79.73,-984.39 45.3,-1316.53z"/>
   <path class="fil0" d="M17920.66 13791.59l1314.82 5.15 -58.02 1615.86c393.67,-361.65 764.06,-739.74 1156.34,-1115.33 102.61,-98.25 189.53,-180 293.22,-276.98 169.18,-158.27 128.3,-115.72 140.48,-416.98 15.52,-383.2 35.25,-763.72 44.87,-1146.78l-1258.95 1.41c-151.59,0.4 -234.35,-26.94 -325.88,53.68l-945.72 915.89c-126.77,119.88 -237.63,257.29 -361.16,364.08z"/>
   <path class="fil0" d="M19790.93 11990.94l1499.72 1.81 -52.82 1412.45 1293.69 -1247.94c68.08,-99.49 40.58,-343.22 46.08,-480.97 12.98,-323.26 36.1,-661.16 37.79,-982.82l-1309.78 0.02c-176.83,0.58 -183.26,-29.57 -274.69,73.28l-531.78 519.78c-65.9,62.02 -115.53,107.5 -180.76,169.5l-527.45 534.89z"/>
   <path class="fil0" d="M16085.75 15644.24l1511.35 0.06 -52.19 1405.29c71.75,-30.04 25.99,-1.65 81.84,-50.18l427.34 -448.64c172,-175.34 301.89,-324.77 503.26,-504.03 141.36,-125.84 136.69,-97.95 144.71,-339.61 14.62,-439.04 60.7,-1045.83 55.43,-1441.42l-1021.97 -2.96c-396.93,1.25 -309.82,8.79 -522.1,221.32 -106.56,106.72 -1087,1077.1 -1127.67,1160.17z"/>
   <polygon class="fil1" points="24927.17,19241.19 24927.17,7040.71 "/>
  </g>
 </g>
</svg>
